<?xml version="1.0" encoding="UTF-8" standalone="no"?>
<!-- Created with Inkscape (http://www.inkscape.org/) -->

<svg
   inkscape:export-ydpi="96"
   inkscape:export-xdpi="96"
   inkscape:export-filename="Template.png"
   width="128"
   height="128"
   id="svg11300"
   sodipodi:version="0.32"
   inkscape:version="1.4 (e7c3feb100, 2024-10-09)"
   sodipodi:docname="com.ranfdev.DistroHome.svg"
   inkscape:output_extension="org.inkscape.output.svg.inkscape"
   version="1.0"
   style="display:inline;enable-background:new"
   viewBox="0 0 128 128"
   xml:space="preserve"
   xmlns:inkscape="http://www.inkscape.org/namespaces/inkscape"
   xmlns:sodipodi="http://sodipodi.sourceforge.net/DTD/sodipodi-0.dtd"
   xmlns:xlink="http://www.w3.org/1999/xlink"
   xmlns="http://www.w3.org/2000/svg"
   xmlns:svg="http://www.w3.org/2000/svg"
   xmlns:rdf="http://www.w3.org/1999/02/22-rdf-syntax-ns#"
   xmlns:cc="http://creativecommons.org/ns#"
   xmlns:dc="http://purl.org/dc/elements/1.1/"><title
     id="title4162">Adwaita Icon Template</title><defs
     id="defs3"><linearGradient
       id="linearGradient510"
       inkscape:collect="always"><stop
         style="stop-color:#ffffff;stop-opacity:0;"
         offset="0"
         id="stop511" /><stop
         style="stop-color:#ffffff;stop-opacity:0.13841623;"
         offset="1"
         id="stop512" /></linearGradient><linearGradient
       id="linearGradient505"
       inkscape:collect="always"><stop
         style="stop-color:#cb7e31;stop-opacity:0.98431373;"
         offset="0"
         id="stop504" /><stop
         style="stop-color:#dca874;stop-opacity:1;"
         offset="1"
         id="stop505" /></linearGradient><linearGradient
       id="linearGradient498"
       inkscape:collect="always"><stop
         style="stop-color:#cb5931;stop-opacity:0.98431373;"
         offset="0"
         id="stop497" /><stop
         style="stop-color:#dc9074;stop-opacity:1;"
         offset="1"
         id="stop498" /></linearGradient><linearGradient
       id="linearGradient493"
       inkscape:collect="always"><stop
         style="stop-color:#4090bc;stop-opacity:0.98431373;"
         offset="0"
         id="stop492" /><stop
         style="stop-color:#639bba;stop-opacity:1;"
         offset="1"
         id="stop493" /></linearGradient><linearGradient
       id="linearGradient482"
       inkscape:collect="always"><stop
         style="stop-color:#cb5931;stop-opacity:0.98431373;"
         offset="0"
         id="stop483" /><stop
         style="stop-color:#dc9074;stop-opacity:1;"
         offset="1"
         id="stop484" /></linearGradient><linearGradient
       id="linearGradient430"
       inkscape:collect="always"><stop
         style="stop-color:#ffffff;stop-opacity:0.34393406;"
         offset="0"
         id="stop429" /><stop
         style="stop-color:#ffffff;stop-opacity:0;"
         offset="0.73482174"
         id="stop430" /></linearGradient><linearGradient
       id="linearGradient427"
       inkscape:collect="always"><stop
         style="stop-color:#ffffff;stop-opacity:0.5700466;"
         offset="0"
         id="stop426" /><stop
         style="stop-color:#ffffff;stop-opacity:0;"
         offset="0.5654555"
         id="stop427" /></linearGradient><linearGradient
       id="linearGradient423"
       inkscape:collect="always"><stop
         style="stop-color:#343434;stop-opacity:1;"
         offset="0.5"
         id="stop422" /><stop
         style="stop-color:#818181;stop-opacity:1;"
         offset="1"
         id="stop423" /></linearGradient><linearGradient
       y2="236"
       x2="96"
       y1="236"
       x1="32"
       gradientTransform="translate(604.81684,170.58641)"
       gradientUnits="userSpaceOnUse"
       id="linearGradient1099"
       xlink:href="#linearGradient1036" /><linearGradient
       id="linearGradient1036"><stop
         id="stop1032"
         offset="0"
         style="stop-color:#d5d3cf;stop-opacity:1;" /><stop
         id="stop1034"
         offset="1"
         style="stop-color:#f6f5f4;stop-opacity:1" /></linearGradient><radialGradient
       r="32"
       fy="-76"
       fx="-244"
       cy="-76"
       cx="-244"
       gradientTransform="matrix(0.88333331,0,0,0.88333331,-460.35018,463.11973)"
       gradientUnits="userSpaceOnUse"
       id="radialGradient1103"
       xlink:href="#linearGradient1069" /><linearGradient
       id="linearGradient1069"><stop
         id="stop1065"
         offset="0"
         style="stop-color:#d5d3cf;stop-opacity:1" /><stop
         id="stop1067-1"
         offset="1"
         style="stop-color:#949390;stop-opacity:1" /></linearGradient><linearGradient
       gradientUnits="userSpaceOnUse"
       y2="232"
       x2="64"
       y1="262.5"
       x1="64"
       id="linearGradient1027"
       xlink:href="#linearGradient1025"
       gradientTransform="translate(-470.5864,432.81685)" /><linearGradient
       id="linearGradient1025"><stop
         id="stop1021"
         offset="0"
         style="stop-color:#9a9996;stop-opacity:1" /><stop
         id="stop1023"
         offset="1"
         style="stop-color:#77767b;stop-opacity:1" /></linearGradient><inkscape:path-effect
       effect="spiro"
       id="path-effect35304-9"
       is_visible="true" /><clipPath
       clipPathUnits="userSpaceOnUse"
       id="clipPath1609-7"><path
         sodipodi:nodetypes="cccccc"
         inkscape:connector-curvature="0"
         id="path1611-5"
         d="m 252,116 28,-28 v -8 h -36 v 36 z"
         style="fill:#e74747;stroke:none;stroke-width:0.25px;stroke-linecap:butt;stroke-linejoin:miter;stroke-opacity:1" /></clipPath><linearGradient
       inkscape:collect="always"
       xlink:href="#linearGradient423"
       id="linearGradient424"
       x1="14.999447"
       y1="282.01758"
       x2="25.017088"
       y2="288"
       gradientUnits="userSpaceOnUse" /><linearGradient
       inkscape:collect="always"
       xlink:href="#linearGradient427"
       id="linearGradient425"
       gradientUnits="userSpaceOnUse"
       gradientTransform="translate(-4.9e-4)"
       x1="106"
       y1="240"
       x2="116"
       y2="240" /><linearGradient
       inkscape:collect="always"
       xlink:href="#linearGradient423"
       id="linearGradient426"
       gradientUnits="userSpaceOnUse"
       x1="14.999447"
       y1="282.01758"
       x2="25.017088"
       y2="288"
       gradientTransform="translate(90.982913)" /><linearGradient
       inkscape:collect="always"
       xlink:href="#linearGradient427"
       id="linearGradient428"
       gradientUnits="userSpaceOnUse"
       gradientTransform="translate(-91.001023)"
       x1="106"
       y1="240"
       x2="116"
       y2="240" /><linearGradient
       inkscape:collect="always"
       xlink:href="#linearGradient430"
       id="linearGradient429"
       gradientUnits="userSpaceOnUse"
       gradientTransform="rotate(180,65.508544,235.5)"
       x1="25.718542"
       y1="286.20923"
       x2="14.315623"
       y2="283.80835" /><clipPath
       id="clipPath16"
       clipPathUnits="userSpaceOnUse"><path
         id="path18"
         d="M 0,560 H 960 V 0 H 0 Z" /></clipPath><linearGradient
       inkscape:collect="always"
       xlink:href="#linearGradient482"
       id="linearGradient476"
       x1="-15.999999"
       y1="228"
       x2="-16.004"
       y2="212.2287"
       gradientUnits="userSpaceOnUse" /><linearGradient
       inkscape:collect="always"
       xlink:href="#linearGradient498"
       id="linearGradient486"
       gradientUnits="userSpaceOnUse"
       x1="-15.999999"
       y1="228"
       x2="-16.004"
       y2="212.2287" /><linearGradient
       inkscape:collect="always"
       xlink:href="#linearGradient493"
       id="linearGradient492"
       gradientUnits="userSpaceOnUse"
       x1="-15.999999"
       y1="228"
       x2="-16.004"
       y2="212.2287" /><linearGradient
       inkscape:collect="always"
       xlink:href="#linearGradient505"
       id="linearGradient504"
       gradientUnits="userSpaceOnUse"
       x1="-15.999999"
       y1="228"
       x2="-16.004"
       y2="212.2287" /><linearGradient
       inkscape:collect="always"
       xlink:href="#linearGradient430"
       id="linearGradient506"
       gradientUnits="userSpaceOnUse"
       gradientTransform="rotate(180,20.008268,235.5)"
       x1="25.718542"
       y1="286.20923"
       x2="14.315623"
       y2="283.80835" /><linearGradient
       inkscape:collect="always"
       xlink:href="#linearGradient510"
       id="linearGradient508"
       x1="-16"
       y1="228"
       x2="-15.999999"
       y2="219"
       gradientUnits="userSpaceOnUse" /></defs><sodipodi:namedview
     stroke="#ef2929"
     fill="#f57900"
     id="base"
     pagecolor="#ffffff"
     bordercolor="#666666"
     borderopacity="0.25490196"
     inkscape:pageopacity="0.0"
     inkscape:pageshadow="2"
     inkscape:zoom="4"
     inkscape:cx="6.5"
     inkscape:cy="8.5"
     inkscape:current-layer="layer1"
     showgrid="false"
     inkscape:grid-bbox="true"
     inkscape:document-units="px"
     inkscape:showpageshadow="false"
     inkscape:window-width="2560"
     inkscape:window-height="1368"
     inkscape:window-x="0"
     inkscape:window-y="0"
     width="400px"
     height="300px"
     inkscape:snap-nodes="true"
     inkscape:snap-bbox="true"
     objecttolerance="7"
     gridtolerance="12"
     guidetolerance="13"
     inkscape:window-maximized="1"
     inkscape:pagecheckerboard="false"
     showguides="false"
     inkscape:guide-bbox="true"
     inkscape:locked="false"
     inkscape:measure-start="0,0"
     inkscape:measure-end="0,0"
     inkscape:object-nodes="true"
     inkscape:bbox-nodes="true"
     inkscape:snap-global="true"
     inkscape:object-paths="true"
     inkscape:snap-intersection-paths="true"
     inkscape:snap-bbox-edge-midpoints="true"
     inkscape:snap-bbox-midpoints="true"
     showborder="false"
     inkscape:snap-center="true"
     inkscape:snap-object-midpoints="true"
     inkscape:snap-midpoints="true"
     inkscape:snap-smooth-nodes="true"
     inkscape:snap-text-baseline="true"
     inkscape:deskcolor="#d1d1d1"><inkscape:grid
       type="xygrid"
       id="grid5883"
       spacingx="2"
       spacingy="2"
       enabled="true"
       visible="true"
       empspacing="4"
       originx="0"
       originy="0"
       units="px" /><sodipodi:guide
       position="64,8"
       orientation="0,1"
       id="guide1073"
       inkscape:locked="false"
       inkscape:label=""
       inkscape:color="rgb(0,0,255)" /><sodipodi:guide
       position="12,64"
       orientation="1,0"
       id="guide1075"
       inkscape:locked="false"
       inkscape:label=""
       inkscape:color="rgb(0,0,255)" /><sodipodi:guide
       position="64,104"
       orientation="0,1"
       id="guide1099"
       inkscape:locked="false"
       inkscape:label=""
       inkscape:color="rgb(0,0,255)" /><sodipodi:guide
       position="64,128"
       orientation="0,1"
       id="guide993"
       inkscape:locked="false"
       inkscape:label=""
       inkscape:color="rgb(0,0,255)" /><sodipodi:guide
       position="104,64"
       orientation="1,0"
       id="guide995"
       inkscape:locked="false"
       inkscape:label=""
       inkscape:color="rgb(0,0,255)" /><sodipodi:guide
       position="9.2651362e-08,64"
       orientation="1,0"
       id="guide867"
       inkscape:locked="false"
       inkscape:label=""
       inkscape:color="rgb(0,0,255)" /><sodipodi:guide
       position="120,64"
       orientation="1,0"
       id="guide869"
       inkscape:locked="false"
       inkscape:label=""
       inkscape:color="rgb(0,0,255)" /><sodipodi:guide
       position="64,116"
       orientation="0,1"
       id="guide871"
       inkscape:locked="false"
       inkscape:label=""
       inkscape:color="rgb(0,0,255)" /><inkscape:grid
       type="xygrid"
       id="grid873"
       spacingx="1"
       spacingy="1"
       empspacing="8"
       color="#000000"
       opacity="0.49019608"
       empcolor="#000000"
       empopacity="0.08627451"
       dotted="true"
       originx="0"
       originy="0"
       units="px" /><sodipodi:guide
       position="24,64"
       orientation="1,0"
       id="guide877"
       inkscape:locked="false"
       inkscape:label=""
       inkscape:color="rgb(0,0,255)" /><sodipodi:guide
       position="116,64"
       orientation="1,0"
       id="guide879"
       inkscape:locked="false"
       inkscape:label=""
       inkscape:color="rgb(0,0,255)" /><sodipodi:guide
       position="64,120"
       orientation="0,1"
       id="guide881"
       inkscape:locked="false"
       inkscape:label=""
       inkscape:color="rgb(0,0,255)" /><sodipodi:guide
       position="64,12"
       orientation="0,1"
       id="guide883"
       inkscape:locked="false"
       inkscape:label=""
       inkscape:color="rgb(0,0,255)" /><sodipodi:guide
       position="8,64"
       orientation="1,0"
       id="guide885"
       inkscape:locked="false"
       inkscape:label=""
       inkscape:color="rgb(0,0,255)" /><sodipodi:guide
       position="128,64"
       orientation="1,0"
       id="guide887"
       inkscape:locked="false"
       inkscape:label=""
       inkscape:color="rgb(0,0,255)" /><sodipodi:guide
       position="64,0"
       orientation="0,1"
       id="guide897"
       inkscape:locked="false"
       inkscape:label=""
       inkscape:color="rgb(0,0,255)" /><sodipodi:guide
       position="64,24"
       orientation="0,1"
       id="guide899"
       inkscape:locked="false"
       inkscape:label=""
       inkscape:color="rgb(0,0,255)" /><sodipodi:guide
       position="256,256"
       orientation="-0.70710678,0.70710678"
       id="guide950"
       inkscape:locked="false"
       inkscape:label=""
       inkscape:color="rgb(0,0,255)" /><sodipodi:guide
       position="64,64"
       orientation="0.70710678,0.70710678"
       id="guide952"
       inkscape:locked="false"
       inkscape:label=""
       inkscape:color="rgb(0,0,255)" /></sodipodi:namedview><metadata
     id="metadata4"><rdf:RDF><cc:Work
         rdf:about=""><dc:format>image/svg+xml</dc:format><dc:type
           rdf:resource="http://purl.org/dc/dcmitype/StillImage" /><dc:creator><cc:Agent><dc:title>GNOME Design Team</dc:title></cc:Agent></dc:creator><dc:source /><cc:license
           rdf:resource="http://creativecommons.org/licenses/by-sa/4.0/" /><dc:title>Adwaita Icon Template</dc:title><dc:subject><rdf:Bag /></dc:subject><dc:date /><dc:rights><cc:Agent><dc:title /></cc:Agent></dc:rights><dc:publisher><cc:Agent><dc:title /></cc:Agent></dc:publisher><dc:identifier /><dc:relation /><dc:language /><dc:coverage /><dc:description /><dc:contributor><cc:Agent><dc:title /></cc:Agent></dc:contributor></cc:Work><cc:License
         rdf:about="http://creativecommons.org/licenses/by-sa/4.0/"><cc:permits
           rdf:resource="http://creativecommons.org/ns#Reproduction" /><cc:permits
           rdf:resource="http://creativecommons.org/ns#Distribution" /><cc:requires
           rdf:resource="http://creativecommons.org/ns#Notice" /><cc:requires
           rdf:resource="http://creativecommons.org/ns#Attribution" /><cc:permits
           rdf:resource="http://creativecommons.org/ns#DerivativeWorks" /><cc:requires
           rdf:resource="http://creativecommons.org/ns#ShareAlike" /></cc:License></rdf:RDF></metadata><g
     id="layer1"
     inkscape:label="App Icon"
     inkscape:groupmode="layer"
     style="display:inline"
     transform="translate(0,-172)"><g
       inkscape:groupmode="layer"
       id="layer2"
       inkscape:label="baseplate"
       style="display:inline"
       sodipodi:insensitive="true"><g
         style="display:inline;fill:#000000;enable-background:new"
         transform="matrix(7.9911709,0,0,8.0036407,-167.7909,-4846.0776)"
         id="g12027"
         inkscape:export-xdpi="12"
         inkscape:export-ydpi="12" /><rect
         style="display:inline;overflow:visible;visibility:visible;fill:#f0f0f0;fill-opacity:1;fill-rule:nonzero;stroke:none;stroke-width:0.5;marker:none;enable-background:accumulate"
         id="rect13805"
         width="128"
         height="128"
         x="9.2651362e-08"
         y="172"
         inkscape:label="512x512" /><g
         id="g883"
         style="fill:none;fill-opacity:0.25098039;stroke:#a579b3;stroke-opacity:1"
         transform="translate(-24,24)" /><g
         id="g900"
         style="fill:none;fill-opacity:0.25098039;stroke:#a579b3;stroke-opacity:1"
         transform="translate(-24,24)" /><rect
         inkscape:label="512x512"
         y="172"
         x="160"
         height="16"
         width="16"
         id="rect859"
         style="display:inline;overflow:visible;visibility:visible;fill:#f0f0f0;fill-opacity:1;fill-rule:nonzero;stroke:none;stroke-width:0.5;marker:none;enable-background:accumulate" /><text
         xml:space="preserve"
         style="font-style:normal;font-variant:normal;font-weight:bold;font-stretch:normal;font-size:4px;line-height:125%;font-family:Cantarell;-inkscape-font-specification:'Cantarell, Bold';text-align:start;writing-mode:lr-tb;text-anchor:start;display:inline;fill:#000000;fill-opacity:1;stroke:none;stroke-width:0.332649;enable-background:new"
         x="0"
         y="164"
         id="text863"
         inkscape:label="icon-name"><tspan
           style="font-size:4px;stroke-width:0.332649"
           sodipodi:role="line"
           id="tspan861"
           x="0"
           y="164">Hicolor</tspan></text><text
         inkscape:label="icon-name"
         id="text867"
         y="164"
         x="160"
         style="font-style:normal;font-variant:normal;font-weight:bold;font-stretch:normal;font-size:4px;line-height:125%;font-family:Cantarell;-inkscape-font-specification:'Cantarell, Bold';text-align:start;writing-mode:lr-tb;text-anchor:start;display:inline;fill:#000000;fill-opacity:1;stroke:none;stroke-width:0.332649;enable-background:new"
         xml:space="preserve"><tspan
           y="164"
           x="160"
           id="tspan865"
           sodipodi:role="line"
           style="font-size:4px;stroke-width:0.332649">Symbolic</tspan></text></g><g
       inkscape:groupmode="layer"
       id="layer9"
       inkscape:label="icons"
       style="display:inline" /><g
       inkscape:groupmode="layer"
       id="layer3"
       inkscape:label="hairlines"
       style="display:inline"
       sodipodi:insensitive="true"><circle
         cx="64.000031"
         cy="236"
         r="59.504131"
         id="circle2892"
         style="display:inline;opacity:0.1;vector-effect:none;fill:none;fill-opacity:1;stroke:#000000;stroke-width:0.99000001;stroke-linecap:butt;stroke-linejoin:miter;stroke-miterlimit:4;stroke-dasharray:0.99000001, 0.99000001;stroke-dashoffset:0;stroke-opacity:1;marker:none;marker-start:none;marker-mid:none;marker-end:none;paint-order:normal;enable-background:new" /><rect
         ry="7.9292889"
         rx="8.701004"
         y="180.49496"
         x="20.495007"
         height="111.01005"
         width="87.009987"
         id="rect2894"
         style="display:inline;opacity:0.1;vector-effect:none;fill:none;fill-opacity:1;stroke:#000000;stroke-width:0.99000001;stroke-linecap:butt;stroke-linejoin:miter;stroke-miterlimit:4;stroke-dasharray:0.99000001, 0.99000001;stroke-dashoffset:0;stroke-opacity:1;marker:none;marker-start:none;marker-mid:none;marker-end:none;paint-order:normal;enable-background:new" /><rect
         ry="7.9238095"
         rx="7.9238095"
         y="184.49524"
         x="12.495266"
         height="103.00952"
         width="103.00952"
         id="rect2896"
         style="display:inline;opacity:0.1;vector-effect:none;fill:none;fill-opacity:1;stroke:#000000;stroke-width:0.99000001;stroke-linecap:butt;stroke-linejoin:miter;stroke-miterlimit:4;stroke-dasharray:0.99000001, 0.99000001;stroke-dashoffset:0;stroke-opacity:1;marker:none;marker-start:none;marker-mid:none;marker-end:none;paint-order:normal;enable-background:new" /><rect
         ry="8.701005"
         rx="7.9292889"
         y="200.49496"
         x="8.4950066"
         height="87.010048"
         width="111.01004"
         id="rect2898"
         style="display:inline;opacity:0.1;vector-effect:none;fill:none;fill-opacity:1;stroke:#000000;stroke-width:0.99000001;stroke-linecap:butt;stroke-linejoin:miter;stroke-miterlimit:4;stroke-dasharray:0.99000001, 0.99000001;stroke-dashoffset:0;stroke-opacity:1;marker:none;marker-start:none;marker-mid:none;marker-end:none;paint-order:normal;enable-background:new" /><path
         inkscape:connector-curvature="0"
         id="path2900"
         d="M 2.6203015e-5,288.99999 H 128.00003"
         style="display:inline;fill:none;stroke:#62a0ea;stroke-width:2;stroke-linecap:butt;stroke-linejoin:miter;stroke-miterlimit:4;stroke-dasharray:none;stroke-opacity:1;enable-background:new" /></g><path
       id="rect2"
       style="fill:#333333;stroke-width:1.00173"
       inkscape:label="sideright"
       d="M 110.98242 184 C 108.22197 184 106 186.22197 106 188.98242 L 106 283.01758 C 106 285.77803 108.22197 288 110.98242 288 L 111.01758 288 C 113.77803 288 116 285.77803 116 283.01758 L 116 188.98242 C 116 186.22197 113.77803 184 111.01758 184 L 110.98242 184 z M 111 193 A 2 2 0 0 1 113 195 A 2 2 0 0 1 111 197 A 2 2 0 0 1 109 195 A 2 2 0 0 1 111 193 z M 111 202 A 2 2 0 0 1 113 204 A 2 2 0 0 1 111 206 A 2 2 0 0 1 109 204 A 2 2 0 0 1 111 202 z M 111 211 A 2 2 0 0 1 113 213 A 2 2 0 0 1 111 215 A 2 2 0 0 1 109 213 A 2 2 0 0 1 111 211 z M 111 220 A 2 2 0 0 1 113 222 A 2 2 0 0 1 111 224 A 2 2 0 0 1 109 222 A 2 2 0 0 1 111 220 z M 111 229 A 2 2 0 0 1 113 231 A 2 2 0 0 1 111 233 A 2 2 0 0 1 109 231 A 2 2 0 0 1 111 229 z M 111 238 A 2 2 0 0 1 113 240 A 2 2 0 0 1 111 242 A 2 2 0 0 1 109 240 A 2 2 0 0 1 111 238 z M 111 247 A 2 2 0 0 1 113 249 A 2 2 0 0 1 111 251 A 2 2 0 0 1 109 249 A 2 2 0 0 1 111 247 z M 111 256 A 2 2 0 0 1 113 258 A 2 2 0 0 1 111 260 A 2 2 0 0 1 109 258 A 2 2 0 0 1 111 256 z M 111 265 A 2 2 0 0 1 113 267 A 2 2 0 0 1 111 269 A 2 2 0 0 1 109 267 A 2 2 0 0 1 111 265 z M 111 274 A 2 2 0 0 1 113 276 A 2 2 0 0 1 111 278 A 2 2 0 0 1 109 276 A 2 2 0 0 1 111 274 z " /><rect
       style="display:inline;fill:#666666;stroke-width:0.80523;enable-background:new"
       id="rect389"
       width="8"
       height="84.00042"
       x="-265.7955"
       y="21.999577"
       ry="0"
       transform="rotate(-90)"
       inkscape:label="planeup"
       rx="0" /><rect
       style="display:inline;fill:#4d4d4d;stroke-width:0.69735;enable-background:new"
       id="rect390"
       width="6"
       height="84.00042"
       x="-265.7955"
       y="21.999577"
       ry="0"
       transform="rotate(-90)"
       inkscape:label="planeup"
       rx="0" /><rect
       style="display:inline;fill:#333333;stroke-width:1.00173;enable-background:new"
       id="rect352"
       width="10"
       height="103.99956"
       x="140.12415"
       y="184.0002"
       ry="4.9827576"
       inkscape:label="sideright" /><rect
       style="fill:#666666;stroke-width:0.80523"
       id="rect11"
       width="8"
       height="84.00042"
       x="-230"
       y="22.000004"
       ry="0"
       transform="rotate(-90)"
       inkscape:label="planeup"
       rx="0" /><rect
       style="display:inline;fill:#4d4d4d;stroke-width:0.69735;enable-background:new"
       id="rect388"
       width="6"
       height="84.00042"
       x="-230"
       y="22.000004"
       ry="0"
       transform="rotate(-90)"
       inkscape:label="planeup"
       rx="0" /><circle
       style="fill:#4d4d4d"
       id="use29"
       cx="145.12415"
       cy="240"
       r="2"
       inkscape:tile-x0="15"
       inkscape:tile-y0="25.999695" /><path
       id="path385"
       style="fill:#4d4d4d;stroke-width:1.00173"
       inkscape:label="sideright"
       d="m 110.9824,183 c -2.76045,0 -4.98242,2.22197 -4.98242,4.98242 v 94.03516 c 0,2.76045 2.22197,4.98242 4.98242,4.98242 h 0.0352 c 2.76045,0 4.98242,-2.22197 4.98242,-4.98242 V 187.98242 C 116.00002,185.22197 113.77805,183 111.0176,183 Z M 111,192 a 2,2 0 0 1 2,2 2,2 0 0 1 -2,2 2,2 0 0 1 -2,-2 2,2 0 0 1 2,-2 z m 0,9 a 2,2 0 0 1 2,2 2,2 0 0 1 -2,2 2,2 0 0 1 -2,-2 2,2 0 0 1 2,-2 z m 0,9 a 2,2 0 0 1 2,2 2,2 0 0 1 -2,2 2,2 0 0 1 -2,-2 2,2 0 0 1 2,-2 z m 0,9 a 2,2 0 0 1 2,2 2,2 0 0 1 -2,2 2,2 0 0 1 -2,-2 2,2 0 0 1 2,-2 z m 0,9 a 2,2 0 0 1 2,2 2,2 0 0 1 -2,2 2,2 0 0 1 -2,-2 2,2 0 0 1 2,-2 z m 0,9 a 2,2 0 0 1 2,2 2,2 0 0 1 -2,2 2,2 0 0 1 -2,-2 2,2 0 0 1 2,-2 z m 0,9 a 2,2 0 0 1 2,2 2,2 0 0 1 -2,2 2,2 0 0 1 -2,-2 2,2 0 0 1 2,-2 z m 0,9 a 2,2 0 0 1 2,2 2,2 0 0 1 -2,2 2,2 0 0 1 -2,-2 2,2 0 0 1 2,-2 z m 0,9 a 2,2 0 0 1 2,2 2,2 0 0 1 -2,2 2,2 0 0 1 -2,-2 2,2 0 0 1 2,-2 z m 0,9 a 2,2 0 0 1 2,2 2,2 0 0 1 -2,2 2,2 0 0 1 -2,-2 2,2 0 0 1 2,-2 z" /><path
       id="path387"
       style="fill:#333333;stroke-width:1.00173"
       inkscape:label="sideright"
       d="m 19.981887,184 c -2.76045,0 -4.98242,2.22197 -4.98242,4.98242 v 94.03516 c 0,2.76045 2.22197,4.98242 4.98242,4.98242 h 0.03516 c 2.76045,0 4.98242,-2.22197 4.98242,-4.98242 v -94.03516 c 0,-2.76045 -2.22197,-4.98242 -4.98242,-4.98242 z m 0.01758,9 a 2,2 0 0 1 2,2 2,2 0 0 1 -2,2 2,2 0 0 1 -2,-2 2,2 0 0 1 2,-2 z m 0,9 a 2,2 0 0 1 2,2 2,2 0 0 1 -2,2 2,2 0 0 1 -2,-2 2,2 0 0 1 2,-2 z m 0,9 a 2,2 0 0 1 2,2 2,2 0 0 1 -2,2 2,2 0 0 1 -2,-2 2,2 0 0 1 2,-2 z m 0,9 a 2,2 0 0 1 2,2 2,2 0 0 1 -2,2 2,2 0 0 1 -2,-2 2,2 0 0 1 2,-2 z m 0,9 a 2,2 0 0 1 2,2 2,2 0 0 1 -2,2 2,2 0 0 1 -2,-2 2,2 0 0 1 2,-2 z m 0,9 a 2,2 0 0 1 2,2 2,2 0 0 1 -2,2 2,2 0 0 1 -2,-2 2,2 0 0 1 2,-2 z m 0,9 a 2,2 0 0 1 2,2 2,2 0 0 1 -2,2 2,2 0 0 1 -2,-2 2,2 0 0 1 2,-2 z m 0,9 a 2,2 0 0 1 2,2 2,2 0 0 1 -2,2 2,2 0 0 1 -2,-2 2,2 0 0 1 2,-2 z m 0,9 a 2,2 0 0 1 2,2 2,2 0 0 1 -2,2 2,2 0 0 1 -2,-2 2,2 0 0 1 2,-2 z m 0,9 a 2,2 0 0 1 2,2 2,2 0 0 1 -2,2 2,2 0 0 1 -2,-2 2,2 0 0 1 2,-2 z" /><path
       id="path388"
       style="fill:#4d4d4d;stroke-width:1.00173"
       inkscape:label="sideright"
       d="m 19.981867,183 c -2.76045,0 -4.98242,2.22197 -4.98242,4.98242 v 94.03516 c 0,2.76045 2.22197,4.98242 4.98242,4.98242 h 0.0352 c 2.76045,0 4.98242,-2.22197 4.98242,-4.98242 v -94.03516 c 0,-2.76045 -2.22197,-4.98242 -4.98242,-4.98242 z m 0.0176,9 a 2,2 0 0 1 2,2 2,2 0 0 1 -2,2 2,2 0 0 1 -2,-2 2,2 0 0 1 2,-2 z m 0,9 a 2,2 0 0 1 2,2 2,2 0 0 1 -2,2 2,2 0 0 1 -2,-2 2,2 0 0 1 2,-2 z m 0,9 a 2,2 0 0 1 2,2 2,2 0 0 1 -2,2 2,2 0 0 1 -2,-2 2,2 0 0 1 2,-2 z m 0,9 a 2,2 0 0 1 2,2 2,2 0 0 1 -2,2 2,2 0 0 1 -2,-2 2,2 0 0 1 2,-2 z m 0,9 a 2,2 0 0 1 2,2 2,2 0 0 1 -2,2 2,2 0 0 1 -2,-2 2,2 0 0 1 2,-2 z m 0,9 a 2,2 0 0 1 2,2 2,2 0 0 1 -2,2 2,2 0 0 1 -2,-2 2,2 0 0 1 2,-2 z m 0,9 a 2,2 0 0 1 2,2 2,2 0 0 1 -2,2 2,2 0 0 1 -2,-2 2,2 0 0 1 2,-2 z m 0,9 a 2,2 0 0 1 2,2 2,2 0 0 1 -2,2 2,2 0 0 1 -2,-2 2,2 0 0 1 2,-2 z m 0,9 a 2,2 0 0 1 2,2 2,2 0 0 1 -2,2 2,2 0 0 1 -2,-2 2,2 0 0 1 2,-2 z m 0,9 a 2,2 0 0 1 2,2 2,2 0 0 1 -2,2 2,2 0 0 1 -2,-2 2,2 0 0 1 2,-2 z" /><path
       style="fill:url(#linearGradient424);stroke-width:1.00173;fill-opacity:1"
       d="m 15.017087,282.01758 v 1 c 0,2.76045 2.22197,4.98242 4.98242,4.98242 h 0.0352 c 2.76037,0 4.98238,-2.22197 4.98238,-4.98242 v -1 c 0,2.76045 -2.22197,4.98242 -4.98242,4.98242 h -0.0352 c -2.76041,0 -4.98238,-2.22197 -4.98238,-4.98242 z"
       id="path422" /><path
       style="fill:url(#linearGradient426);fill-opacity:1;stroke-width:1.00173"
       d="m 106,282.01758 v 1 c 0,2.76045 2.22197,4.98242 4.98242,4.98242 h 0.0352 C 113.77799,288 116,285.77803 116,283.01758 v -1 C 116,284.77803 113.77803,287 111.01758,287 h -0.0352 C 108.22197,287 106,284.77803 106,282.01758 Z"
       id="path424" /><path
       id="path425"
       style="fill:url(#linearGradient425);stroke-width:1.00173"
       d="m 111,192 a 2,2 0 0 0 -2,2 2,2 0 0 0 0.13281,0.5 A 2,2 0 0 1 111,193 2,2 0 0 1 112.89453,194.39258 2,2 0 0 0 113,194 a 2,2 0 0 0 -2,-2 z m 0,9 a 2,2 0 0 0 -2,2 2,2 0 0 0 0.13281,0.5 A 2,2 0 0 1 111,202 2,2 0 0 1 112.89453,203.39258 2,2 0 0 0 113,203 a 2,2 0 0 0 -2,-2 z m 0,9 a 2,2 0 0 0 -2,2 2,2 0 0 0 0.13281,0.5 A 2,2 0 0 1 111,211 2,2 0 0 1 112.89453,212.39258 2,2 0 0 0 113,212 a 2,2 0 0 0 -2,-2 z m 0,9 a 2,2 0 0 0 -2,2 2,2 0 0 0 0.13281,0.5 A 2,2 0 0 1 111,220 2,2 0 0 1 112.89453,221.39258 2,2 0 0 0 113,221 a 2,2 0 0 0 -2,-2 z m 0,9 a 2,2 0 0 0 -2,2 2,2 0 0 0 0.13281,0.5 A 2,2 0 0 1 111,229 2,2 0 0 1 112.89453,230.39258 2,2 0 0 0 113,230 a 2,2 0 0 0 -2,-2 z m 0,9 a 2,2 0 0 0 -2,2 2,2 0 0 0 0.13281,0.5 A 2,2 0 0 1 111,238 2,2 0 0 1 112.89453,239.39258 2,2 0 0 0 113,239 a 2,2 0 0 0 -2,-2 z m 0,9 a 2,2 0 0 0 -2,2 2,2 0 0 0 0.13281,0.5 A 2,2 0 0 1 111,247 2,2 0 0 1 112.89453,248.39258 2,2 0 0 0 113,248 a 2,2 0 0 0 -2,-2 z m 0,9 a 2,2 0 0 0 -2,2 2,2 0 0 0 0.13281,0.5 A 2,2 0 0 1 111,256 2,2 0 0 1 112.89453,257.39258 2,2 0 0 0 113,257 a 2,2 0 0 0 -2,-2 z m 0,9 a 2,2 0 0 0 -2,2 2,2 0 0 0 0.13281,0.5 A 2,2 0 0 1 111,265 2,2 0 0 1 112.89453,266.39258 2,2 0 0 0 113,266 a 2,2 0 0 0 -2,-2 z m 0,9 a 2,2 0 0 0 -2,2 2,2 0 0 0 0.13281,0.5 A 2,2 0 0 1 111,274 2,2 0 0 1 112.89453,275.39258 2,2 0 0 0 113,275 a 2,2 0 0 0 -2,-2 z" /><path
       id="path427"
       style="fill:url(#linearGradient428);stroke-width:1.00173"
       d="m 19.999467,192 a 2,2 0 0 0 -2,2 2,2 0 0 0 0.13281,0.5 2,2 0 0 1 1.86719,-1.5 2,2 0 0 1 1.89453,1.39258 2,2 0 0 0 0.10547,-0.39258 2,2 0 0 0 -2,-2 z m 0,9 a 2,2 0 0 0 -2,2 2,2 0 0 0 0.13281,0.5 2,2 0 0 1 1.86719,-1.5 2,2 0 0 1 1.89453,1.39258 2,2 0 0 0 0.10547,-0.39258 2,2 0 0 0 -2,-2 z m 0,9 a 2,2 0 0 0 -2,2 2,2 0 0 0 0.13281,0.5 2,2 0 0 1 1.86719,-1.5 2,2 0 0 1 1.89453,1.39258 2,2 0 0 0 0.10547,-0.39258 2,2 0 0 0 -2,-2 z m 0,9 a 2,2 0 0 0 -2,2 2,2 0 0 0 0.13281,0.5 2,2 0 0 1 1.86719,-1.5 2,2 0 0 1 1.89453,1.39258 2,2 0 0 0 0.10547,-0.39258 2,2 0 0 0 -2,-2 z m 0,9 a 2,2 0 0 0 -2,2 2,2 0 0 0 0.13281,0.5 2,2 0 0 1 1.86719,-1.5 2,2 0 0 1 1.89453,1.39258 2,2 0 0 0 0.10547,-0.39258 2,2 0 0 0 -2,-2 z m 0,9 a 2,2 0 0 0 -2,2 2,2 0 0 0 0.13281,0.5 2,2 0 0 1 1.86719,-1.5 2,2 0 0 1 1.89453,1.39258 2,2 0 0 0 0.10547,-0.39258 2,2 0 0 0 -2,-2 z m 0,9 a 2,2 0 0 0 -2,2 2,2 0 0 0 0.13281,0.5 2,2 0 0 1 1.86719,-1.5 2,2 0 0 1 1.89453,1.39258 2,2 0 0 0 0.10547,-0.39258 2,2 0 0 0 -2,-2 z m 0,9 a 2,2 0 0 0 -2,2 2,2 0 0 0 0.13281,0.5 2,2 0 0 1 1.86719,-1.5 2,2 0 0 1 1.89453,1.39258 2,2 0 0 0 0.10547,-0.39258 2,2 0 0 0 -2,-2 z m 0,9 a 2,2 0 0 0 -2,2 2,2 0 0 0 0.13281,0.5 2,2 0 0 1 1.86719,-1.5 2,2 0 0 1 1.89453,1.39258 2,2 0 0 0 0.10547,-0.39258 2,2 0 0 0 -2,-2 z m 0,9 a 2,2 0 0 0 -2,2 2,2 0 0 0 0.13281,0.5 2,2 0 0 1 1.86719,-1.5 2,2 0 0 1 1.89453,1.39258 2,2 0 0 0 0.10547,-0.39258 2,2 0 0 0 -2,-2 z" /><path
       style="fill:url(#linearGradient429);fill-opacity:1;stroke-width:1.00173"
       d="m 116,188.98242 v -1 C 116,185.22197 113.77803,183 111.01758,183 h -0.0352 C 108.22201,183 106,185.22197 106,187.98242 v 1 C 106,186.22197 108.22197,184 110.98242,184 h 0.0352 c 2.76041,0 4.98238,2.22197 4.98238,4.98242 z"
       id="path428" /><g
       id="g449"
       inkscape:label="box"
       transform="translate(-18.73833,-1.75)"><rect
         style="fill:#e1955c;fill-opacity:0.982669;stroke-width:0.646498"
         id="rect431"
         width="32"
         height="32"
         x="-32"
         y="220"
         rx="6"
         ry="6" /><rect
         style="fill:#e4ac6d;fill-opacity:0.982669;stroke-width:0.646498"
         id="rect432"
         width="32"
         height="32"
         x="-32"
         y="219"
         rx="6"
         ry="6" /><path
         id="rect433"
         style="fill:#e7b67f;fill-opacity:0.982669;stroke-width:0.647654"
         d="m -32,228 v 16.97852 c 0,3.3359 2.676,6.02148 6,6.02148 h 20 c 3.324,0 6,-2.68558 6,-6.02148 V 228 Z" /><rect
         style="fill:#df9b4f;fill-opacity:0.982669;stroke-width:1.40781"
         id="rect434"
         width="2.0000014"
         height="9"
         x="-17"
         y="219" /></g><g
       id="g465"
       inkscape:label="box"
       transform="matrix(0.75,0,0,0.72727273,91.000513,39.727272)"><rect
         style="fill:#c45631;fill-opacity:0.984314;stroke-width:0.646498"
         id="rect463"
         width="32"
         height="32"
         x="-32"
         y="220"
         rx="6"
         ry="6" /><rect
         style="fill:url(#linearGradient476);fill-opacity:1;stroke-width:0.646498"
         id="rect464"
         width="32"
         height="32"
         x="-32"
         y="219"
         rx="6"
         ry="6" /><path
         id="path464"
         style="fill:#d26f4b;fill-opacity:0.984314;stroke-width:0.647654"
         d="m -32,228 v 16.97852 c 0,3.3359 2.676,6.02148 6,6.02148 h 20 c 3.324,0 6,-2.68558 6,-6.02148 V 228 Z" /><rect
         style="fill:#ab4b2b;fill-opacity:0.984314;stroke-width:1.40781"
         id="rect465"
         width="2.0000014"
         height="9"
         x="-17"
         y="219" /></g><g
       id="g486"
       inkscape:label="box"
       transform="matrix(0.75,0,0,0.72727273,77.000513,75.727272)"><rect
         style="fill:#c45631;fill-opacity:0.984314;stroke-width:0.646498"
         id="rect484"
         width="32"
         height="32"
         x="-32"
         y="220"
         rx="6"
         ry="6" /><rect
         style="fill:url(#linearGradient486);fill-opacity:1;stroke-width:0.646498"
         id="rect485"
         width="32"
         height="32"
         x="-32"
         y="219"
         rx="6"
         ry="6" /><path
         id="path485"
         style="fill:#d26f4b;fill-opacity:0.984314;stroke-width:0.647654"
         d="m -32,228 v 16.97852 c 0,3.3359 2.676,6.02148 6,6.02148 h 20 c 3.324,0 6,-2.68558 6,-6.02148 V 228 Z" /><rect
         style="fill:#ab4b2b;fill-opacity:0.984314;stroke-width:1.40781"
         id="rect486"
         width="2.0000014"
         height="9"
         x="-17"
         y="219" /></g><g
       id="g489"
       inkscape:label="box"
       transform="matrix(0.75,0,0,0.72727273,105.00051,75.727272)"><rect
         style="fill:#71a550;fill-opacity:0.984314;stroke-width:0.646498"
         id="rect487"
         width="32"
         height="32"
         x="-32"
         y="220"
         rx="6"
         ry="6" /><rect
         style="fill:#71a550;fill-opacity:0.984314;stroke-width:0.646498"
         id="rect488"
         width="32"
         height="32"
         x="-32"
         y="219"
         rx="6"
         ry="6" /><rect
         style="display:inline;fill:url(#linearGradient508);fill-opacity:1;stroke-width:0.646498;enable-background:new"
         id="rect506"
         width="32"
         height="32"
         x="-32"
         y="219"
         rx="6"
         ry="6" /><path
         id="path488"
         style="fill:#85be5f;fill-opacity:0.984314;stroke-width:0.647654"
         d="m -32,228 v 16.97852 c 0,3.3359 2.676,6.02148 6,6.02148 h 20 c 3.324,0 6,-2.68558 6,-6.02148 V 228 Z" /><rect
         style="fill:#629244;fill-opacity:0.984314;stroke-width:1.40781"
         id="rect489"
         width="2.0000014"
         height="9"
         x="-17"
         y="219" /></g><g
       id="g492"
       inkscape:label="box"
       transform="matrix(0.75,0,0,0.72727273,51.000513,75.727272)"><rect
         style="fill:#398ebc;fill-opacity:0.984314;stroke-width:0.646498"
         id="rect490"
         width="32"
         height="32"
         x="-32"
         y="220"
         rx="6"
         ry="6" /><rect
         style="fill:url(#linearGradient492);fill-opacity:1;stroke-width:0.646498"
         id="rect491"
         width="32"
         height="32"
         x="-32"
         y="219"
         rx="6"
         ry="6" /><path
         id="path491"
         style="fill:#629cbb;fill-opacity:0.984314;stroke-width:0.647654"
         d="m -32,228 v 16.97852 c 0,3.3359 2.676,6.02148 6,6.02148 h 20 c 3.324,0 6,-2.68558 6,-6.02148 V 228 Z" /><rect
         style="fill:#427794;fill-opacity:0.984314;stroke-width:1.40781"
         id="rect492"
         width="2.0000014"
         height="9"
         x="-17"
         y="219" /></g><g
       id="g504"
       inkscape:label="box"
       transform="matrix(0.75,0,0,0.72727273,51.000513,39.727272)"><rect
         style="fill:#c47b31;fill-opacity:0.984314;stroke-width:0.646498"
         id="rect502"
         width="32"
         height="32"
         x="-32"
         y="220"
         rx="6"
         ry="6" /><rect
         style="fill:url(#linearGradient504);fill-opacity:1;stroke-width:0.646498"
         id="rect503"
         width="32"
         height="32"
         x="-32"
         y="219"
         rx="6"
         ry="6" /><path
         id="path503"
         style="fill:#d28e4b;fill-opacity:0.984314;stroke-width:0.647654"
         d="m -32,228 v 16.97852 c 0,3.3359 2.676,6.02148 6,6.02148 h 20 c 3.324,0 6,-2.68558 6,-6.02148 V 228 Z" /><rect
         style="fill:#ab6b2b;fill-opacity:0.984314;stroke-width:1.40781"
         id="rect504"
         width="2.0000014"
         height="9"
         x="-17"
         y="219" /></g><path
       style="fill:url(#linearGradient506);fill-opacity:1;stroke-width:1.00173"
       d="m 24.999447,188.98242 v -1 c 0,-2.76045 -2.22197,-4.98242 -4.98242,-4.98242 h -0.0352 c -2.76037,0 -4.98238,2.22197 -4.98238,4.98242 v 1 c 0,-2.76045 2.22197,-4.98242 4.98242,-4.98242 h 0.0352 c 2.76041,0 4.98238,2.22197 4.98238,4.98242 z"
       id="path505" /></g></svg>
